<?xml version="1.0" encoding="UTF-8"?><svg fill="none" viewBox="0 0 108 108" xmlns="http://www.w3.org/2000/svg"><g fill="#404040"><path d="m4.8975 56.588 32.009 14.565 14.534 32.008-46.542-46.573zm66.212 14.549 0.0795-0.0482 31.945-14.517-46.574 46.589 14.549-32.024zm-32.629-0.434 15.519-15.53 15.535 15.53-0.0636 0.1608-15.456 34.001-15.519-34.162h-0.0159zm-35.348-16.687 34.171-15.546 15.535 15.53-15.535 15.546-34.171-15.53zm52.028 0 15.535-15.546 0.1749 0.0643 34.012 15.449-34.187 15.546-15.535-15.53v0.0161zm-3.7209-49.145-14.549 32.024-0.0954 0.0322-31.929 14.501 46.574-46.573v0.01607zm19.654 32.008-14.534-32.024 46.558 46.557-32.008-14.549-0.0159 0.016zm-32.645 0.4502 0.0795-0.1769 15.472-34.001 15.535 34.178-15.535 15.514-15.535-15.514h-0.0159zm15.551-37.329-0.6837 0.6752-52.617 52.633-0.69965 0.6752 54.016 54.016 0.6678-0.659 52.632-52.634 0.096-0.1126 0.588-0.5787-0.716-0.7074-52.6-52.633-0.6837-0.6752z"/><path d="m81.429 55.254c0.1113-0.3055 0.2863-0.5627 0.493-0.7717s0.4611-0.3858 0.7632-0.4984c0.3021-0.1286 0.6202-0.1768 0.9859-0.1768s0.6837 0.0643 0.9858 0.1768c0.3022 0.1286 0.5566 0.2894 0.7633 0.4984s0.3816 0.4662 0.4929 0.7717c0.1113 0.3054 0.1749 0.6269 0.1749 0.9806s-0.0636 0.6752-0.1749 0.9807c-0.1113 0.3054-0.2703 0.5626-0.4929 0.7716s-0.4611 0.3858-0.7633 0.5145c-0.3021 0.1286-0.6201 0.1768-0.9858 0.1768s-0.6838-0.0643-0.9859-0.1768c-0.2862-0.1287-0.5406-0.2894-0.7632-0.5145-0.2067-0.209-0.3817-0.4662-0.493-0.7716-0.1113-0.3055-0.1749-0.627-0.1749-0.9807s0.0636-0.6752 0.1749-0.9806zm4.2138-7.1379h-1.8604l-2.9417 4.6943c-0.1749 0.2893-0.3339 0.5626-0.477 0.8199-0.1431 0.2572-0.2704 0.5305-0.3658 0.8038s-0.1749 0.5626-0.2385 0.852c-0.0477 0.3055-0.0795 0.627-0.0795 0.9967 0 0.5788 0.1113 1.0932 0.318 1.5594 0.2068 0.4662 0.5089 0.8681 0.8587 1.1897 0.3657 0.3376 0.7792 0.5787 1.2721 0.7716 0.477 0.1769 0.9858 0.2572 1.5424 0.2572 0.5565 0 1.0654-0.0803 1.5424-0.2411s0.9063-0.418 1.2562-0.7395c0.3657-0.3376 0.6519-0.7395 0.8586-1.2379 0.2067-0.4983 0.318-1.061 0.318-1.7201 0-0.6592-0.1113-1.1897-0.3339-1.672-0.2226-0.4662-0.5088-0.852-0.8427-1.1574-0.3499-0.3055-0.7315-0.5306-1.1608-0.6752-0.4293-0.1447-0.8428-0.209-1.2562-0.209-0.4929 0-0.9223 0.0964-1.288 0.2572h-0.0636l2.9258-4.5496h0.0159zm-11.687 0h-6.2332l-0.1272 6.1894c0.3975-0.193 0.811-0.3537 1.2721-0.4502 0.4452-0.1125 0.8269-0.1607 1.129-0.1607 0.8268 0 1.5106 0.209 2.0194 0.643 0.5247 0.418 0.7792 1.0771 0.7792 1.9292 0 0.3697-0.0637 0.7073-0.175 1.0128-0.1272 0.3054-0.2862 0.5465-0.4929 0.7555s-0.4452 0.3698-0.7314 0.4663c-0.2863 0.1125-0.5725 0.1607-0.8746 0.1607-0.5247 0-0.97-0.1125-1.3198-0.3537-0.3498-0.2411-0.636-0.6269-0.8427-1.1735l-1.5742 0.5466c0.2703 0.7555 0.7314 1.3504 1.3674 1.7523 0.6361 0.418 1.3516 0.6109 2.1308 0.6109 0.5724 0 1.0972-0.0965 1.5901-0.2733 0.4929-0.1769 0.9223-0.4502 1.3039-0.7878 0.3657-0.3376 0.6678-0.7555 0.8745-1.2218 0.2068-0.4822 0.3181-0.9967 0.3181-1.5915s-0.0795-1.0932-0.2545-1.5755c-0.1749-0.4823-0.4134-0.8842-0.7314-1.2218s-0.6996-0.6109-1.1449-0.7877c-0.4452-0.1929-0.9381-0.2733-1.4788-0.2733h-0.3657c-0.1431 0-0.2862 0.0322-0.4293 0.0482-0.1431 0.0161-0.2863 0.0483-0.4294 0.0804-0.1431 0.0322-0.2544 0.0643-0.3339 0.0965l0.0477-2.942h4.7067v-1.4951 0.0161zm-35.284 4.6139c-0.1113 0.3054-0.2862 0.5627-0.493 0.7716-0.2067 0.209-0.4611 0.3859-0.7632 0.4984-0.3021 0.1286-0.6201 0.1769-0.9859 0.1769-0.3657 0-0.6837-0.0644-0.9858-0.1769-0.2863-0.1286-0.5566-0.2894-0.7633-0.4984-0.2067-0.2089-0.3816-0.4662-0.4929-0.7716-0.1113-0.2894-0.1749-0.627-0.1749-0.9807 0-0.3536 0.0636-0.6752 0.1749-0.9806 0.1113-0.3055 0.2862-0.5627 0.4929-0.7717s0.4611-0.3858 0.7633-0.4983c0.3021-0.1286 0.6201-0.1769 0.9858-0.1769 0.3658 0 0.6838 0.0643 0.9859 0.1769 0.3021 0.1286 0.5565 0.2893 0.7632 0.4983 0.2068 0.209 0.3817 0.4662 0.493 0.7717 0.1113 0.3054 0.1749 0.627 0.1749 0.9806 0 0.3537-0.0636 0.6752-0.1749 0.9807zm-4.2138 7.1218h1.8604l2.9417-4.6943c0.1749-0.2733 0.3339-0.5466 0.477-0.8199 0.1432-0.2733 0.2704-0.5305 0.3658-0.8038 0.1113-0.2733 0.1749-0.5627 0.2385-0.852 0.0477-0.3055 0.0795-0.627 0.0795-0.9968 0-0.5787-0.1113-1.0931-0.318-1.5594-0.2067-0.4662-0.493-0.8681-0.8587-1.1896-0.3657-0.3376-0.7791-0.5948-1.2721-0.7717-0.477-0.1768-0.9858-0.2572-1.5424-0.2572-0.5565 0-1.0653 0.0804-1.5424 0.2572-0.477 0.1769-0.9063 0.418-1.2721 0.7556-0.3657 0.3376-0.6519 0.7395-0.8586 1.2379s-0.318 1.061-0.318 1.7041c0 0.643 0.1113 1.1896 0.3339 1.6719 0.2226 0.4662 0.4929 0.852 0.8427 1.1575 0.3499 0.3054 0.7315 0.5305 1.1608 0.6752s0.8428 0.209 1.2562 0.209c0.4929 0 0.9223-0.0965 1.288-0.2733h0.0636l-2.9258 4.5496zm-11.051 0h1.5742v-11.736h-1.3993l-3.2279 2.7008 0.9222 1.1093 2.1308-1.9935v9.9191z"/><path d="m59.756 39.355h1.0018v-4.7746h1.7173v-0.9164h-4.4523v0.9164h1.7173v4.7746h0.0159zm-4.0548-5.2569c-0.2226-0.209-0.477-0.3537-0.7473-0.4501-0.2703-0.0965-0.5725-0.1287-0.8587-0.1287-0.2544 0-0.5088 0.0322-0.7632 0.0965-0.2545 0.0643-0.4771 0.1768-0.6679 0.3215s-0.3498 0.3215-0.477 0.5305-0.1749 0.4662-0.1749 0.7717c0 0.3376 0.0636 0.6109 0.1908 0.8038s0.3021 0.3698 0.4929 0.4823c0.1908 0.1286 0.4134 0.209 0.652 0.2894 0.2385 0.0643 0.4452 0.1447 0.636 0.225 0.1908 0.0804 0.3657 0.1769 0.4929 0.2894s0.1908 0.2733 0.1908 0.4823c0 0.1286-0.0318 0.2411-0.0954 0.3376-0.0636 0.0964-0.1431 0.1768-0.2385 0.2411s-0.2067 0.1126-0.318 0.1447c-0.1113 0.0322-0.2385 0.0482-0.3498 0.0482-0.2226 0-0.4294-0.0482-0.6361-0.1607-0.1908-0.0965-0.3657-0.2412-0.477-0.4341l-0.7632 0.7395c0.2385 0.2733 0.5088 0.4823 0.8427 0.5949 0.318 0.1125 0.6679 0.1768 1.0018 0.1768 0.2703 0 0.5406-0.0322 0.7791-0.1125 0.2544-0.0804 0.4612-0.193 0.652-0.3376 0.1908-0.1447 0.3339-0.3376 0.4452-0.5627s0.159-0.4984 0.159-0.8038c0-0.3376-0.0636-0.6109-0.1908-0.8199s-0.3021-0.3698-0.4929-0.4984-0.4135-0.225-0.6361-0.2893c-0.2385-0.0643-0.4452-0.1447-0.6519-0.2251-0.1908-0.0804-0.3657-0.1608-0.493-0.2733-0.1272-0.0965-0.1908-0.2572-0.1908-0.4501 0-0.1286 0.0318-0.2412 0.0795-0.3376 0.0477-0.0965 0.1273-0.1769 0.2068-0.2251 0.0954-0.0643 0.1908-0.0965 0.3021-0.1286 0.1113-0.0322 0.2226-0.0322 0.3339-0.0322 0.1908 0 0.3816 0.0322 0.5565 0.1126 0.1749 0.0803 0.3181 0.1929 0.4294 0.3376l0.7314-0.7878 0.0477 0.0322zm-10.177 5.2569h3.8799v-0.9163h-2.8781v-1.5434h2.5919v-0.9163h-2.5919v-1.3986h2.735v-0.9164h-3.7368v5.691z"/></g></svg>

